<mxfile host="app.diagrams.net" modified="2024-05-18T21:26:52.543Z" agent="Mozilla/5.0 (Windows NT 10.0; Win64; x64) AppleWebKit/537.36 (KHTML, like Gecko) Chrome/123.0.0.0 Safari/537.36 OPR/109.0.0.0" version="24.4.2" etag="GuKNqqV6-7b9b2hSD5Tj" type="github">
  <diagram name="PÃ¡gina-1" id="UIqeTnBIr_Lz2YEP-lTO">
    <mxGraphModel>
      <root>
        <mxCell id="0" />
        <mxCell id="1" parent="0" />
      </root>
    </mxGraphModel>
  </diagram>
</mxfile>
